Coordinates
version=1
nRows=19
nColumns=24
inDegrees=yes

Units are S.I. units (second, meters, Newtons, ...)
Angles are in degrees.

endheader
time	pelvis_tilt	pelvis_list	pelvis_rotation	pelvis_tx	pelvis_ty	pelvis_tz	hip_flexion_r	hip_adduction_r	hip_rotation_r	knee_angle_r	ankle_angle_r	subtalar_angle_r	mtp_angle_r	hip_flexion_l	hip_adduction_l	hip_rotation_l	knee_angle_l	ankle_angle_l	subtalar_angle_l	mtp_angle_l	lumbar_extension	lumbar_bending	lumbar_rotation
      1.19350000	     -9.18134176	     -3.52580325	    -12.14248264	     -0.03432627	      0.86198659	      0.37961315	     -9.63349059	      6.89498706	      6.36158704	    -11.43924596	     21.04379633	     11.99497170	      9.42845583	     38.68210989	    -10.04069561	    -12.29331486	     -2.77704648	      5.11077958	     -1.74166776	      2.33299785	      3.73742964	      6.25448960	     14.20656471
      1.19766667	     -9.17578731	     -3.44341007	    -12.24744991	     -0.02842491	      0.86111043	      0.37956607	     -9.80617574	      6.69554849	      6.33497594	    -11.87427553	     20.97595683	     12.14845244	      9.68549632	     38.77418736	    -10.01701340	    -12.42767992	     -3.28200906	      5.17980175	     -1.76984775	      2.29805759	      3.78593141	      6.08716563	     14.28709879
      1.20183333	     -9.20056671	     -3.35703193	    -12.32004426	     -0.02248754	      0.86019623	      0.37944700	     -9.93417680	      6.50095251	      6.27619727	    -12.33340983	     20.92706928	     12.35061951	     10.33844194	     38.91962671	     -9.97658402	    -12.55629502	     -3.86928845	      5.14995816	     -1.75304477	      2.25477664	      3.85607087	      5.94478875	     14.38929513
      1.20600000	     -9.17523475	     -3.27030112	    -12.37271327	     -0.01646668	      0.85941565	      0.37934542	    -10.15245616	      6.30710871	      6.31658842	    -12.71912843	     20.71401919	     12.32475130	     10.38897958	     38.96636367	     -9.90762854	    -12.56633401	     -4.41925435	      5.09124683	     -1.90798830	      2.25274185	      3.85910843	      5.75179179	     14.38154480
      1.21016667	     -9.16679327	     -3.15221707	    -12.43632412	     -0.01037120	      0.85865047	      0.37922641	    -10.31526606	      6.07400768	      6.29613825	    -13.16208221	     20.44364812	     12.35436303	     14.32669423	     39.00938294	     -9.81381753	    -12.61773915	     -4.97920666	      4.95926807	     -2.09268304	      2.47474934	      3.93073791	      5.52803175	     14.40202903
      1.21433333	     -9.16989311	     -3.04798927	    -12.44991432	     -0.00422102	      0.85788149	      0.37904119	    -10.48071095	      5.87215581	      6.27947558	    -13.59300722	     20.18834166	     12.31656378	     14.34391362	     39.08581492	     -9.70549827	    -12.61424077	     -5.60882760	      4.81891594	     -2.23323143	      2.47874871	      4.01565850	      5.32064481	     14.39975260
      1.21850000	     -9.17885565	     -2.92483319	    -12.46328669	      0.00198139	      0.85714644	      0.37885147	    -10.62081206	      5.65169521	      6.26267130	    -14.05566715	     19.91073422	     12.29278333	     14.38081832	     39.15501403	     -9.57830039	    -12.62329370	     -6.24890073	      4.59850009	     -2.39555229	      2.48755729	      4.11488463	      5.09236522	     14.38929598
      1.22266667	     -9.19479992	     -2.78746212	    -12.46108049	      0.00823638	      0.85644083	      0.37862213	    -10.73881967	      5.42046899	      6.23104773	    -14.54235214	     19.59908883	     12.26541964	     14.43934499	     39.22458211	     -9.42398782	    -12.61504072	     -6.89948749	      4.31151083	     -2.58231877	      2.50258831	      4.23187902	      4.84667319	     14.36880380
      1.22683333	     -9.26027229	     -2.63010526	    -12.44266169	      0.01451318	      0.85569249	      0.37833405	    -10.77482678	      5.18050554	      6.18202508	    -15.07979166	     19.32607503	     12.29038170	     14.79824993	     39.31962623	     -9.22601016	    -12.45110087	     -7.49619522	      3.84252642	     -3.07200020	      2.61053735	      4.41476991	      4.58278430	     14.27459459
      1.23100000	     -9.26612353	     -2.46132988	    -12.40105532	      0.02089543	      0.85509354	      0.37801645	    -10.87995633	      4.91591932	      6.09925904	    -15.58726083	     18.81763115	     12.19479721	     18.58607915	     39.35142850	     -9.00146333	    -12.38364494	     -8.12312362	      3.40933092	     -3.36040208	      3.85720174	      4.52828798	      4.27932174	     14.24688855
      1.23516667	     -9.30670958	     -2.28853244	    -12.35577618	      0.02729845	      0.85449104	      0.37770300	    -10.93529762	      4.66362320	      6.06365125	    -16.12677746	     18.35722082	     12.10803625	     18.61914329	     39.42989576	     -8.78020717	    -12.33807729	     -8.78748388	      2.93271795	     -3.58847357	      3.86804207	      4.69554840	      3.97754653	     14.17803341
      1.23933333	     -9.34338604	     -2.10746613	    -12.28962072	      0.03374480	      0.85392893	      0.37732715	    -10.97031539	      4.40186362	      5.97070564	    -16.71025533	     17.86682410	     12.00465499	     18.67924095	     39.50540201	     -8.53223853	    -12.27377906	     -9.46091041	      2.41854950	     -3.87472160	      3.88474743	      4.88187456	      3.68822251	     14.10306047
      1.24350000	     -9.42369965	     -1.91653673	    -12.19808292	      0.04017057	      0.85333421	      0.37687897	    -10.93050092	      4.14769218	      5.89298404	    -17.34405343	     17.41800759	     11.91877909	     18.94573423	     39.61236041	     -8.23707955	    -12.00721172	    -10.08358246	      1.75532434	     -4.54315259	      3.96466039	      5.08305910	      3.37969373	     13.92771118
      1.24766667	     -9.47551155	     -1.70257533	    -12.10360842	      0.04669974	      0.85285838	      0.37645521	    -10.91835527	      3.86153856	      5.79740605	    -17.96443647	     16.80554464	     11.83243861	     19.10159790	     39.69938524	     -7.93961094	    -11.92987327	    -10.75886893	      1.18789406	     -4.77008936	      4.00785710	      5.27914888	      3.00989439	     13.85642855
      1.25183333	     -9.56434743	     -1.50067563	    -11.98438896	      0.05317356	      0.85234350	      0.37592606	    -10.81992544	      3.60130466	      5.66671899	    -18.68090910	     16.28037080	     11.70723348	     19.56917540	     39.83458206	     -7.61783010	    -11.67712687	    -11.43360989	      0.50544226	     -5.43705061	      4.13583316	      5.50940551	      2.70697976	     13.66241007
      1.25600000	     -9.60696437	     -1.26758352	    -11.85134017	      0.05975237	      0.85196348	      0.37538980	    -10.76449099	      3.28994469	      5.47969844	    -19.37490372	     15.52041896	     11.59972226	     24.55232410	     39.92434219	     -7.26975852	    -11.56089651	    -12.13554570	     -0.08244522	     -5.77776994	      5.55557180	      5.69381334	      2.32549534	     13.59178174
      1.26016667	     -9.68318131	     -1.04612520	    -11.71635894	      0.06631756	      0.85158822	      0.37487495	    -10.65894934	      3.01317173	      5.36497675	    -20.10658771	     14.80116826	     11.46080340	     24.58612313	     40.07336940	     -6.94865565	    -11.47273365	    -12.90094633	     -0.63086756	     -6.01492832	      5.56305042	      5.92232961	      1.95644766	     13.47387065
      1.26433333	     -9.78005604	     -0.82522624	    -11.56150436	      0.07285207	      0.85120558	      0.37427519	    -10.48468490	      2.74133133	      5.19823338	    -20.92644032	     14.13546253	     11.32065373	     24.74146786	     40.25102898	     -6.60121233	    -11.26778887	    -13.67226016	     -1.20698926	     -6.51397573	      5.59294275	      6.16213180	      1.62418782	     13.27951240
      1.26850000	     -9.85796584	     -0.58286120	    -11.39243981	      0.07943566	      0.85090582	      0.37365265	    -10.31262585	      2.44070169	      5.00293182	    -21.76370814	     13.38904376	     11.22238873	     25.00218501	     40.40978951	     -6.22735418	    -11.09456010	    -14.45662553	     -1.71913106	     -6.90909504	      5.63802462	      6.38717832	      1.23990585	     13.11578431
